<?xml version="1.0" encoding="iso-8859-1"?>
<!-- Generator: Adobe Illustrator 16.0.0, SVG Export Plug-In . SVG Version: 6.00 Build 0)  -->
<!DOCTYPE svg PUBLIC "-//W3C//DTD SVG 1.1//EN" "http://www.w3.org/Graphics/SVG/1.1/DTD/svg11.dtd">
<svg version="1.1" id="Capa_1" xmlns="http://www.w3.org/2000/svg" xmlns:xlink="http://www.w3.org/1999/xlink" x="0px" y="0px"
	 width="90px" height="90px" viewBox="0 0 90 90" style="enable-background:new 0 0 90 90;" xml:space="preserve">
<g>
	<path d="M34.002,56.352L13.998,48.35v6.77l20.004,8.002V56.352z M34.002,35.582l-20.004-8.001v6.77l20.004,8.001V35.582z
		 M87.803,0.859c-1.373-0.93-3.119-1.118-4.66-0.502L45,15.615L6.855,0.357C5.314-0.259,3.57-0.07,2.195,0.859
		C0.822,1.789,0,3.34,0,5v64c0,2.045,1.244,3.883,3.141,4.643l39.916,15.965c0,0,0.818,0.264,0.973,0.295
		C44.35,89.965,44.674,90,45,90c0.324,0,0.648-0.035,0.971-0.098c0.152-0.031,0.975-0.297,0.975-0.297l39.912-15.963
		C88.756,72.883,90,71.045,90,69V5C90,3.34,89.176,1.789,87.803,0.859z M40,79.77L8,66.971v-56.04l32,12.802V79.77z M82,66.971
		L50,79.77V23.732l32-12.802V66.971z M76.002,48.35l-20.004,8.002v6.77l20.004-8.002V48.35z M76.002,27.581l-20.004,8.001v6.77
		l20.004-8.001V27.581z"/>
</g>
<g>
</g>
<g>
</g>
<g>
</g>
<g>
</g>
<g>
</g>
<g>
</g>
<g>
</g>
<g>
</g>
<g>
</g>
<g>
</g>
<g>
</g>
<g>
</g>
<g>
</g>
<g>
</g>
<g>
</g>
</svg>
