<?xml version="1.0" encoding="utf-8"?>
<!-- Generator: Adobe Illustrator 16.0.0, SVG Export Plug-In . SVG Version: 6.00 Build 0)  -->
<!DOCTYPE svg PUBLIC "-//W3C//DTD SVG 1.1//EN" "http://www.w3.org/Graphics/SVG/1.1/DTD/svg11.dtd">
<svg version="1.1" id="Capa_1" xmlns="http://www.w3.org/2000/svg" xmlns:xlink="http://www.w3.org/1999/xlink" x="0px" y="0px"
	 width="342.219px" height="342.214px" viewBox="128.89 128.894 342.219 342.214"
	 enable-background="new 128.89 128.894 342.219 342.214" xml:space="preserve">
<g>
	<path fill="#222221" d="M457.805,128.894h-315.61c-7.348,0-13.305,5.957-13.305,13.305v315.604c0,7.349,5.958,13.306,13.305,13.306
		h315.609c7.349,0,13.306-5.957,13.306-13.306V142.198C471.109,134.851,465.152,128.894,457.805,128.894z M444.5,444.497h-289
		V155.503h289V444.497z"/>
	<path fill="#222221" d="M309.41,236.399c-4.989-4.99-13.825-4.99-18.814,0l-50.891,50.893c-5.197,5.197-5.197,13.617,0,18.813
		c5.197,5.197,13.623,5.197,18.814,0l28.179-28.182v111.273c0,7.348,5.958,13.305,13.305,13.305c7.348,0,13.306-5.957,13.306-13.305
		V277.925l28.183,28.183c2.596,2.6,6.003,3.897,9.407,3.897c3.402,0,6.812-1.299,9.406-3.897c5.197-5.197,5.197-13.617,0-18.814
		L309.41,236.399z"/>
	<path fill="#222221" d="M194.519,210.087h210.963c7.348,0,13.305-5.957,13.305-13.305c0-7.348-5.957-13.305-13.305-13.305H194.519
		c-7.348,0-13.305,5.957-13.305,13.305C181.214,204.13,187.171,210.087,194.519,210.087z"/>
</g>
</svg>
